<svg xmlns="http://www.w3.org/2000/svg" viewBox="0 0 100 100" fill="#cd104d">
<path d="M49.998 38.5C43.658 38.5 38.5 43.659 38.5 50s5.158 11.5 11.498 11.5C56.34 61.5 61.5 56.341 61.5 50s-5.16-11.5-11.502-11.5zm0 20c-4.686 0-8.498-3.813-8.498-8.5 0-4.688 3.813-8.5 8.498-8.5 4.688 0 8.502 3.813 8.502 8.5 0 4.687-3.813 8.5-8.502 8.5zm0-10.25a1.75 1.75 0 1 0 1.752 1.748 1.75 1.75 0 0 0-1.752-1.748zM50 18.5c-17.369 0-31.5 14.131-31.5 31.5 0 5.951 1.696 11.746 4.912 16.81l-4.814 12.657a1.5 1.5 0 0 0 1.935 1.935l12.656-4.814C38.251 79.804 44.046 81.5 50 81.5c17.369 0 31.5-14.131 31.5-31.5S67.369 18.5 50 18.5zm0 60c-5.615 0-11.077-1.671-15.796-4.832a1.498 1.498 0 0 0-1.368-.156L22.59 77.41l3.898-10.247a1.501 1.501 0 0 0-.156-1.368C23.171 61.074 21.5 55.612 21.5 50c0-15.715 12.785-28.5 28.5-28.5S78.5 34.285 78.5 50 65.715 78.5 50 78.5zm-2.633-13.564c-6.216-1.089-11.152-5.991-12.284-12.199a1.5 1.5 0 0 0-2.951.537c1.355 7.438 7.271 13.313 14.718 14.617a1.501 1.501 0 0 0 1.737-1.219 1.5 1.5 0 0 0-1.22-1.736zm-1.157 6.565c-9.016-1.579-16.134-8.697-17.713-17.712a1.5 1.5 0 0 0-2.955.517c1.797 10.255 9.895 18.353 20.15 20.149a1.501 1.501 0 0 0 1.737-1.219 1.5 1.5 0 0 0-1.219-1.735zm28.251-25.812c-1.797-10.256-9.895-18.354-20.15-20.149a1.5 1.5 0 1 0-.517 2.955c9.016 1.579 16.134 8.697 17.713 17.712a1.501 1.501 0 0 0 1.737 1.219 1.5 1.5 0 0 0 1.217-1.737zM53.153 32.105a1.5 1.5 0 1 0-.517 2.955c6.216 1.089 11.152 5.991 12.284 12.199a1.5 1.5 0 1 0 2.952-.537c-1.356-7.438-7.271-13.312-14.719-14.617z"/>
</svg>