<svg xmlns="http://www.w3.org/2000/svg" viewBox="0 0 8.467 8.467" fill="#ffffff"><g  font-weight="400" font-family="sans-serif" stroke-width=".265" stroke-linecap="round" stroke-linejoin="round"><path style="line-height:normal;text-indent:0;text-align:start;text-decoration-line:none;text-decoration-style:solid;text-transform:none;block-progression:tb;white-space:normal;isolation:auto;mix-blend-mode:normal;solid-color:#000;solid-opacity:1" d="M7.54 6.351a.132.132 0 0 0-.132.135v.46a.133.133 0 0 0 .266 0v-.46a.132.132 0 0 0-.135-.135z" overflow="visible" fill-rule="evenodd"/><path style="line-height:normal;text-indent:0;text-align:start;text-decoration-line:none;text-decoration-style:solid;text-decoration-color:#000;text-transform:none;block-progression:tb;white-space:normal;isolation:auto;mix-blend-mode:normal;solid-color:#000;solid-opacity:1" d="M7.264 5.69a.132.132 0 0 0-.12.13v.662a.132.132 0 0 0 .131.133h.53a.132.132 0 0 0 .133-.133V5.82a.132.132 0 0 0-.133-.13h-.53a.132.132 0 0 0-.011 0zm.144.263h.266v.396h-.266v-.396z" overflow="visible"/><path style="line-height:normal;text-indent:0;text-align:start;text-decoration-line:none;text-decoration-style:solid;text-decoration-color:#000;text-transform:none;block-progression:tb;white-space:normal;isolation:auto;mix-blend-mode:normal;solid-color:#000;solid-opacity:1" d="M6.865 1.719a.132.132 0 0 0-.078.226l.621.623v3.153a.133.133 0 0 0 .266 0V2.514a.132.132 0 0 0-.04-.094l-.66-.66a.132.132 0 0 0-.109-.041z" overflow="visible" fill-rule="evenodd"/></g></svg>