<svg xmlns="http://www.w3.org/2000/svg" viewBox="0 0 64 64" fill="#ffffff"><path d="M32 5C17.112 5 5 17.112 5 32s12.112 27 27 27 27-12.112 27-27S46.888 5 32 5zm0 52C18.215 57 7 45.785 7 32S18.215 7 32 7s25 11.215 25 25-11.215 25-25 25z"/><path d="M35 32c0-1.654-1.346-3-3-3s-3 1.346-3 3 1.346 3 3 3 3-1.346 3-3zm-4 0c0-.551.449-1 1-1s1 .449 1 1-.449 1-1 1-1-.449-1-1z"/><path d="M41 32c0-4.962-4.037-9-9-9-4.962 0-9 4.038-9 9 0 4.963 4.038 9 9 9 4.963 0 9-4.037 9-9zm-16 0c0-3.86 3.14-7 7-7 3.859 0 7 3.14 7 7 0 3.859-3.141 7-7 7-3.86 0-7-3.141-7-7z"/><path d="M33 18a1 1 0 0 0-1-1c-8.271 0-15 6.729-15 15a1 1 0 0 0 2 0c0-7.168 5.832-13 13-13a1 1 0 0 0 1-1z"/><path d="M32 13a1 1 0 0 0 0-2c-11.58 0-21 9.421-21 21a1 1 0 0 0 2 0c0-10.477 8.523-19 19-19zm0 34c8.271 0 15-6.729 15-15a1 1 0 1 0-2 0c0 7.168-5.832 13-13 13a1 1 0 1 0 0 2z"/><path d="M52.001 31a1 1 0 0 0-1 1C51 42.477 42.477 51 32 51a1 1 0 1 0 0 2c11.579 0 21-9.421 21-21a.998.998 0 0 0-.999-1z"/></svg>